<svg xmlns="http://www.w3.org/2000/svg" width="26" height="26" viewBox="0 0 26 26"><defs><style>.a{fill:#141414;}</style></defs><path class="a" d="M4.1-47.5H-.3v-1a.99.99,0,0,0-1-1,.99.99,0,0,0-1,1v1h-8.4v-1a.99.99,0,0,0-1-1,.99.99,0,0,0-1,1v1h-4.4a2.407,2.407,0,0,0-2.4,2.4v19.2a2.407,2.407,0,0,0,2.4,2.4H4.1a2.407,2.407,0,0,0,2.4-2.4V-45.1A2.407,2.407,0,0,0,4.1-47.5Zm-21.2,2h4.4v1a.99.99,0,0,0,1,1,.99.99,0,0,0,1-1v-1h8.4v1a.99.99,0,0,0,1,1,.99.99,0,0,0,1-1v-1H4.1a.4.4,0,0,1,.4.4v3.14h-22V-45.1A.4.4,0,0,1-17.1-45.5Zm21.2,20H-17.1a.4.4,0,0,1-.4-.4V-39.96h22V-25.9A.4.4,0,0,1,4.1-25.5ZM-9.5-37.14a1.391,1.391,0,0,0-1.4-1.4,1.391,1.391,0,0,0-1.4,1.4,1.391,1.391,0,0,0,1.4,1.4A1.391,1.391,0,0,0-9.5-37.14Zm4.4,0a1.391,1.391,0,0,0-1.4-1.4,1.391,1.391,0,0,0-1.4,1.4,1.391,1.391,0,0,0,1.4,1.4A1.391,1.391,0,0,0-5.1-37.14Zm4.4.02a1.391,1.391,0,0,0-1.4-1.4,1.391,1.391,0,0,0-1.4,1.4,1.391,1.391,0,0,0,1.4,1.4A1.391,1.391,0,0,0-.7-37.12Zm4.4,0a1.391,1.391,0,0,0-1.4-1.4,1.391,1.391,0,0,0-1.4,1.4,1.391,1.391,0,0,0,1.4,1.4A1.391,1.391,0,0,0,3.7-37.12ZM-9.5-32.74a1.391,1.391,0,0,0-1.4-1.4,1.391,1.391,0,0,0-1.4,1.4,1.391,1.391,0,0,0,1.4,1.4A1.391,1.391,0,0,0-9.5-32.74Zm-4.4.02a1.391,1.391,0,0,0-1.4-1.4,1.391,1.391,0,0,0-1.4,1.4,1.391,1.391,0,0,0,1.4,1.4A1.391,1.391,0,0,0-13.9-32.72Zm8.8,0a1.391,1.391,0,0,0-1.4-1.4,1.391,1.391,0,0,0-1.4,1.4,1.391,1.391,0,0,0,1.4,1.4A1.391,1.391,0,0,0-5.1-32.72Zm4.4,0a1.391,1.391,0,0,0-1.4-1.4,1.391,1.391,0,0,0-1.4,1.4,1.391,1.391,0,0,0,1.4,1.4A1.391,1.391,0,0,0-.7-32.72Zm4.4,0a1.391,1.391,0,0,0-1.4-1.4,1.391,1.391,0,0,0-1.4,1.4,1.391,1.391,0,0,0,1.4,1.4A1.391,1.391,0,0,0,3.7-32.72ZM-9.5-28.34a1.391,1.391,0,0,0-1.4-1.4,1.391,1.391,0,0,0-1.4,1.4,1.391,1.391,0,0,0,1.4,1.4A1.391,1.391,0,0,0-9.5-28.34Zm-4.4.02a1.391,1.391,0,0,0-1.4-1.4,1.391,1.391,0,0,0-1.4,1.4,1.391,1.391,0,0,0,1.4,1.4A1.391,1.391,0,0,0-13.9-28.32Zm8.8,0a1.391,1.391,0,0,0-1.4-1.4,1.391,1.391,0,0,0-1.4,1.4,1.391,1.391,0,0,0,1.4,1.4A1.391,1.391,0,0,0-5.1-28.32Z" transform="translate(19.5 49.5)"/></svg>