<svg xmlns="http://www.w3.org/2000/svg" width="24" height="24" viewBox="0 0 24 24"><defs><style>.a{fill:#859ec6;}</style></defs><path class="a" d="M2.285-47.654H-1.777v-.923A.914.914,0,0,0-2.7-49.5a.914.914,0,0,0-.923.923v.923h-7.754v-.923A.914.914,0,0,0-12.3-49.5a.914.914,0,0,0-.923.923v.923h-4.062A2.222,2.222,0,0,0-19.5-45.438v17.723A2.222,2.222,0,0,0-17.285-25.5H2.285A2.222,2.222,0,0,0,4.5-27.715V-45.438A2.222,2.222,0,0,0,2.285-47.654Zm-19.569,1.846h4.062v.923a.914.914,0,0,0,.923.923.914.914,0,0,0,.923-.923v-.923h7.754v.923a.914.914,0,0,0,.923.923.914.914,0,0,0,.923-.923v-.923H2.285a.37.37,0,0,1,.369.369v2.9H-17.654v-2.9A.37.37,0,0,1-17.285-45.808ZM2.285-27.346H-17.285a.37.37,0,0,1-.369-.369V-40.694H2.654v12.978A.37.37,0,0,1,2.285-27.346ZM-10.269-38.091a1.284,1.284,0,0,0-1.292-1.292,1.284,1.284,0,0,0-1.292,1.292A1.284,1.284,0,0,0-11.562-36.8,1.284,1.284,0,0,0-10.269-38.091Zm4.062,0A1.284,1.284,0,0,0-7.5-39.383a1.284,1.284,0,0,0-1.292,1.292A1.284,1.284,0,0,0-7.5-36.8,1.284,1.284,0,0,0-6.208-38.091Zm4.062.018a1.284,1.284,0,0,0-1.292-1.292,1.284,1.284,0,0,0-1.292,1.292A1.284,1.284,0,0,0-3.438-36.78,1.284,1.284,0,0,0-2.146-38.072Zm4.062,0A1.284,1.284,0,0,0,.623-39.365,1.284,1.284,0,0,0-.669-38.072,1.284,1.284,0,0,0,.623-36.78,1.284,1.284,0,0,0,1.915-38.072Zm-12.185,4.043a1.284,1.284,0,0,0-1.292-1.292,1.284,1.284,0,0,0-1.292,1.292,1.284,1.284,0,0,0,1.292,1.292A1.284,1.284,0,0,0-10.269-34.029Zm-4.062.018A1.284,1.284,0,0,0-15.623-35.3a1.284,1.284,0,0,0-1.292,1.292,1.284,1.284,0,0,0,1.292,1.292A1.284,1.284,0,0,0-14.331-34.011Zm8.123,0A1.284,1.284,0,0,0-7.5-35.3a1.284,1.284,0,0,0-1.292,1.292A1.284,1.284,0,0,0-7.5-32.718,1.284,1.284,0,0,0-6.208-34.011Zm4.062,0A1.284,1.284,0,0,0-3.438-35.3a1.284,1.284,0,0,0-1.292,1.292,1.284,1.284,0,0,0,1.292,1.292A1.284,1.284,0,0,0-2.146-34.011Zm4.062,0A1.284,1.284,0,0,0,.623-35.3,1.284,1.284,0,0,0-.669-34.011,1.284,1.284,0,0,0,.623-32.718,1.284,1.284,0,0,0,1.915-34.011Zm-12.185,4.043a1.284,1.284,0,0,0-1.292-1.292,1.284,1.284,0,0,0-1.292,1.292,1.284,1.284,0,0,0,1.292,1.292A1.284,1.284,0,0,0-10.269-29.968Zm-4.062.018a1.284,1.284,0,0,0-1.292-1.292,1.284,1.284,0,0,0-1.292,1.292,1.284,1.284,0,0,0,1.292,1.292A1.284,1.284,0,0,0-14.331-29.949Zm8.123,0A1.284,1.284,0,0,0-7.5-31.242a1.284,1.284,0,0,0-1.292,1.292A1.284,1.284,0,0,0-7.5-28.657,1.284,1.284,0,0,0-6.208-29.949Z" transform="translate(19.5 49.5)"/></svg>